<svg width="48" height="40" viewBox="0 0 48 40" fill="none" xmlns="http://www.w3.org/2000/svg">
<g clip-path="url(#clip0_1479_12005)">
<path fill-rule="evenodd" clip-rule="evenodd" d="M45.917 38.6667C45.917 38.6667 49.0003 38.6667 49.0003 35.5556C49.0003 32.4445 45.917 23.1112 33.5837 23.1112C21.2503 23.1112 18.167 32.4445 18.167 35.5556C18.167 38.6667 21.2503 38.6667 21.2503 38.6667H45.917ZM21.3182 35.5556H45.8492C45.8636 35.5539 45.878 35.5518 45.8923 35.5494L45.917 35.5432C45.9108 34.7218 45.4021 32.3387 43.5737 30.192C41.8717 28.1791 38.8808 26.2223 33.5837 26.2223C28.2896 26.2223 25.2987 28.1823 23.5937 30.192C21.7652 32.3387 21.2534 34.7249 21.2503 35.5432C21.2729 35.5475 21.2955 35.5517 21.3182 35.5556ZM33.5837 16.8889C35.2192 16.8889 36.7877 16.2334 37.9441 15.0665C39.1006 13.8996 39.7503 12.3169 39.7503 10.6667C39.7503 9.01647 39.1006 7.43382 37.9441 6.26693C36.7877 5.10004 35.2192 4.44448 33.5837 4.44448C31.9482 4.44448 30.3796 5.10004 29.2232 6.26693C28.0667 7.43382 27.417 9.01647 27.417 10.6667C27.417 12.3169 28.0667 13.8996 29.2232 15.0665C30.3796 16.2334 31.9482 16.8889 33.5837 16.8889ZM42.8337 10.6667C42.8337 11.8924 42.5944 13.106 42.1295 14.2384C41.6647 15.3708 40.9833 16.3997 40.1244 17.2664C39.2655 18.133 38.2457 18.8205 37.1235 19.2896C36.0012 19.7586 34.7984 20 33.5837 20C32.3689 20 31.1661 19.7586 30.0438 19.2896C28.9216 18.8205 27.9019 18.133 27.0429 17.2664C26.184 16.3997 25.5026 15.3708 25.0378 14.2384C24.5729 13.106 24.3337 11.8924 24.3337 10.6667C24.3337 8.19135 25.3082 5.81738 27.0429 4.06704C28.7776 2.3167 31.1304 1.33337 33.5837 1.33337C36.0369 1.33337 38.3897 2.3167 40.1244 4.06704C41.8591 5.81738 42.8337 8.19135 42.8337 10.6667ZM21.053 23.9823C19.8196 23.5904 18.5482 23.3328 17.2605 23.2138C16.5369 23.1444 15.8105 23.1101 15.0837 23.1112C2.75033 23.1112 -0.333008 32.4445 -0.333008 35.5556C-0.333008 37.6307 0.693742 38.6667 2.75033 38.6667H15.7497C15.2926 37.6955 15.0646 36.6306 15.0837 35.5556C15.0837 32.4134 16.2461 29.2027 18.4445 26.5209C19.1937 25.6063 20.0663 24.7507 21.053 23.9823ZM14.837 26.2223C9.69399 26.2845 6.77408 28.2134 5.09366 30.192C3.25291 32.3512 2.75033 34.7436 2.75033 35.5556H12.0003C12.0003 32.3045 12.9962 29.0658 14.837 26.2223ZM4.29199 12.2223C4.29199 9.74691 5.26654 7.37294 7.00125 5.6226C8.73597 3.87226 11.0887 2.88893 13.542 2.88893C15.9952 2.88893 18.348 3.87226 20.0827 5.6226C21.8174 7.37294 22.792 9.74691 22.792 12.2223C22.792 14.6976 21.8174 17.0716 20.0827 18.8219C18.348 20.5723 15.9952 21.5556 13.542 21.5556C11.0887 21.5556 8.73597 20.5723 7.00125 18.8219C5.26654 17.0716 4.29199 14.6976 4.29199 12.2223ZM13.542 6.00004C11.9065 6.00004 10.338 6.65559 9.1815 7.82249C8.02503 8.98938 7.37533 10.572 7.37533 12.2223C7.37533 13.8725 8.02503 15.4551 9.1815 16.622C10.338 17.7889 11.9065 18.4445 13.542 18.4445C15.1775 18.4445 16.746 17.7889 17.9025 16.622C19.059 15.4551 19.7087 13.8725 19.7087 12.2223C19.7087 10.572 19.059 8.98938 17.9025 7.82249C16.746 6.65559 15.1775 6.00004 13.542 6.00004Z" fill="#23A6F0"/>
</g>
<defs>
<clipPath id="clip0_1479_12005">
<rect width="48" height="39.5295" fill="white"/>
</clipPath>
</defs>
</svg>
