<svg width="23" height="23" viewBox="0 0 23 23" fill="none" xmlns="http://www.w3.org/2000/svg">
<path d="M20.1711 8.41927C20.1134 8.24946 20.0073 8.10025 19.8658 7.99006C19.7243 7.87987 19.5537 7.81353 19.3749 7.79922L14.1458 7.38371L11.883 2.3747C11.8109 2.21337 11.6937 2.07634 11.5455 1.98016C11.3972 1.88397 11.2244 1.83274 11.0477 1.83264C10.871 1.83254 10.698 1.88359 10.5497 1.97961C10.4014 2.07563 10.284 2.21253 10.2118 2.37378L7.94895 7.38371L2.7198 7.79922C2.54411 7.81314 2.37614 7.87738 2.23601 7.98425C2.09587 8.09113 1.98949 8.23612 1.92959 8.40187C1.8697 8.56762 1.85882 8.74712 1.89827 8.91889C1.93772 9.09066 2.02582 9.24743 2.15203 9.37044L6.01634 13.1375L4.64966 19.0555C4.60816 19.2347 4.62146 19.4221 4.68783 19.5936C4.7542 19.7651 4.87059 19.9127 5.02187 20.0172C5.17316 20.1217 5.35237 20.1783 5.53624 20.1797C5.72011 20.1811 5.90016 20.1272 6.05303 20.025L11.0474 16.6955L16.0417 20.025C16.1979 20.1288 16.3822 20.1822 16.5697 20.1781C16.7572 20.1739 16.9389 20.1125 17.0905 20.002C17.242 19.8916 17.3561 19.7373 17.4173 19.5601C17.4786 19.3828 17.4841 19.1911 17.4331 19.0106L15.7555 13.1403L19.9161 9.39612C20.1885 9.15031 20.2885 8.7669 20.1711 8.41927Z" fill="#F3CD03"/>
</svg>
